<svg id="visual" viewBox="0 0 900 600" width="900" height="600" xmlns="http://www.w3.org/2000/svg" xmlns:xlink="http://www.w3.org/1999/xlink" version="1.1"><rect x="0" y="0" width="900" height="600" fill="#ffffff"></rect><path d="M798 600L804.8 585.7C811.7 571.3 825.3 542.7 829.7 514.2C834 485.7 829 457.3 819 428.8C809 400.3 794 371.7 796.7 343C799.3 314.3 819.7 285.7 832.2 257C844.7 228.3 849.3 199.7 850.8 171.2C852.3 142.7 850.7 114.3 845.5 85.8C840.3 57.3 831.7 28.7 827.3 14.3L823 0L900 0L900 14.3C900 28.7 900 57.3 900 85.8C900 114.3 900 142.7 900 171.2C900 199.7 900 228.3 900 257C900 285.7 900 314.3 900 343C900 371.7 900 400.3 900 428.8C900 457.3 900 485.7 900 514.2C900 542.7 900 571.3 900 585.7L900 600Z" fill="#0066FF" stroke-linecap="round" stroke-linejoin="miter"></path></svg>