<svg id="visual" viewBox="0 0 675 900" width="675" height="900" xmlns="http://www.w3.org/2000/svg" xmlns:xlink="http://www.w3.org/1999/xlink" version="1.1"><rect x="0" y="0" width="675" height="900" fill="#ffffff"></rect><path d="M0 326L16 310.5C32 295 64 264 96.2 252.3C128.3 240.7 160.7 248.3 192.8 256.2C225 264 257 272 289.2 269C321.3 266 353.7 252 385.8 258.5C418 265 450 292 482.2 298.3C514.3 304.7 546.7 290.3 578.8 297.2C611 304 643 332 659 346L675 360L675 0L659 0C643 0 611 0 578.8 0C546.7 0 514.3 0 482.2 0C450 0 418 0 385.8 0C353.7 0 321.3 0 289.2 0C257 0 225 0 192.8 0C160.7 0 128.3 0 96.2 0C64 0 32 0 16 0L0 0Z" fill="#fa7268"></path><path d="M0 211L16 207.7C32 204.3 64 197.7 96.2 203.3C128.3 209 160.7 227 192.8 238.7C225 250.3 257 255.7 289.2 253.5C321.3 251.3 353.7 241.7 385.8 234.7C418 227.7 450 223.3 482.2 217C514.3 210.7 546.7 202.3 578.8 198.5C611 194.7 643 195.3 659 195.7L675 196L675 0L659 0C643 0 611 0 578.8 0C546.7 0 514.3 0 482.2 0C450 0 418 0 385.8 0C353.7 0 321.3 0 289.2 0C257 0 225 0 192.8 0C160.7 0 128.3 0 96.2 0C64 0 32 0 16 0L0 0Z" fill="#ef5f67"></path><path d="M0 133L16 140.7C32 148.3 64 163.7 96.2 180C128.3 196.3 160.7 213.7 192.8 217.8C225 222 257 213 289.2 210.5C321.3 208 353.7 212 385.8 217.3C418 222.7 450 229.3 482.2 230.5C514.3 231.7 546.7 227.3 578.8 215.5C611 203.7 643 184.3 659 174.7L675 165L675 0L659 0C643 0 611 0 578.8 0C546.7 0 514.3 0 482.2 0C450 0 418 0 385.8 0C353.7 0 321.3 0 289.2 0C257 0 225 0 192.8 0C160.7 0 128.3 0 96.2 0C64 0 32 0 16 0L0 0Z" fill="#e34c67"></path><path d="M0 148L16 143.3C32 138.7 64 129.3 96.2 125.2C128.3 121 160.7 122 192.8 119.5C225 117 257 111 289.2 109.2C321.3 107.3 353.7 109.7 385.8 114.3C418 119 450 126 482.2 121.5C514.3 117 546.7 101 578.8 104C611 107 643 129 659 140L675 151L675 0L659 0C643 0 611 0 578.8 0C546.7 0 514.3 0 482.2 0C450 0 418 0 385.8 0C353.7 0 321.3 0 289.2 0C257 0 225 0 192.8 0C160.7 0 128.3 0 96.2 0C64 0 32 0 16 0L0 0Z" fill="#d53867"></path><path d="M0 44L16 49.2C32 54.3 64 64.7 96.2 65.8C128.3 67 160.7 59 192.8 54.8C225 50.7 257 50.3 289.2 53.8C321.3 57.3 353.7 64.7 385.8 74.3C418 84 450 96 482.2 91.3C514.3 86.7 546.7 65.3 578.8 60.8C611 56.3 643 68.7 659 74.8L675 81L675 0L659 0C643 0 611 0 578.8 0C546.7 0 514.3 0 482.2 0C450 0 418 0 385.8 0C353.7 0 321.3 0 289.2 0C257 0 225 0 192.8 0C160.7 0 128.3 0 96.2 0C64 0 32 0 16 0L0 0Z" fill="#c62368"></path></svg>